<?xml version="1.0" standalone="no"?>
<!DOCTYPE svg PUBLIC "-//W3C//DTD SVG 20010904//EN"
 "http://www.w3.org/TR/2001/REC-SVG-20010904/DTD/svg10.dtd">
<svg version="1.0" xmlns="http://www.w3.org/2000/svg"
 width="8268.000000pt" height="8268.000000pt" viewBox="0 0 8268.000000 8268.000000"
 preserveAspectRatio="xMidYMid meet">

<g transform="translate(0.000000,8268.000000) scale(0.100000,-0.100000)"
fill="#000000" stroke="none">
<path d="M38794 80946 c-200 -46 -428 -181 -877 -520 -193 -146 -1006 -690
-4027 -2696 -4346 -2886 -6728 -4467 -6968 -4625 -92 -60 -226 -156 -299 -212
-152 -118 -244 -179 -433 -288 -74 -43 -142 -83 -150 -90 -8 -7 -1545 -1020
-3415 -2252 -1870 -1232 -3632 -2395 -3915 -2585 -283 -189 -591 -391 -685
-448 -93 -57 -325 -207 -515 -334 -190 -127 -618 -411 -952 -631 -334 -220
-2980 -1974 -5880 -3898 -2900 -1924 -5401 -3577 -5558 -3674 -1048 -648
-1594 -1014 -1925 -1293 -142 -119 -587 -545 -667 -637 -37 -43 -170 -211
-295 -373 -207 -269 -249 -330 -464 -680 -130 -212 -259 -425 -286 -475 -28
-49 -85 -150 -127 -224 -197 -342 -370 -736 -441 -1004 -15 -54 -42 -135 -61
-179 -19 -44 -34 -86 -34 -94 0 -32 -55 -12 -75 27 -9 16 -24 33 -35 39 -19
10 -19 8 -14 -37 4 -27 17 -106 30 -177 34 -186 32 -255 -11 -367 -19 -50 -35
-99 -35 -109 0 -65 -62 5 -149 167 -35 66 -78 137 -97 159 -33 39 -33 39 -34
13 0 -40 34 -144 97 -292 71 -170 102 -259 109 -322 6 -50 6 -51 -32 -75 -57
-37 -67 -77 -60 -230 4 -88 1 -152 -9 -217 -63 -389 -85 -1095 -85 -2733 0
-1178 8 -1921 36 -3605 19 -1123 15 -3152 -11 -5395 -24 -2165 -35 -4097 -35
-6520 1 -1632 4 -2305 12 -2355 6 -40 12 -221 13 -425 2 -402 20 -1158 35
-1450 60 -1138 293 -2017 800 -3015 283 -555 685 -1175 1033 -1592 107 -127
530 -566 654 -678 320 -290 766 -606 1518 -1077 246 -155 1345 -857 2220
-1419 165 -106 633 -405 1040 -664 407 -259 988 -631 1290 -825 685 -440 1158
-739 2275 -1435 228 -142 550 -346 715 -453 165 -108 658 -427 1095 -709 437
-283 881 -571 985 -640 105 -69 618 -402 1140 -740 523 -338 1135 -735 1360
-881 226 -146 493 -319 595 -385 219 -142 859 -541 1335 -832 1014 -620 1331
-819 1852 -1158 563 -366 691 -447 943 -590 275 -156 394 -218 525 -272 128
-52 189 -88 455 -265 207 -138 3443 -2259 4125 -2703 143 -93 530 -343 860
-555 330 -211 713 -458 850 -547 554 -359 1192 -755 1995 -1238 201 -121 478
-293 615 -382 138 -89 426 -271 640 -405 215 -134 435 -273 490 -310 151 -101
295 -193 1920 -1230 825 -526 1596 -1018 1713 -1094 414 -266 825 -515 1642
-994 305 -179 649 -381 765 -449 665 -395 1063 -573 1279 -573 l82 0 12 103
c6 56 21 170 32 252 20 150 31 331 50 820 5 143 15 361 20 485 11 246 33 3697
24 3900 -2 69 -9 584 -15 1145 -6 561 -15 1115 -20 1230 -5 116 -13 309 -18
430 -8 219 -8 221 -55 395 -118 440 -210 632 -383 802 -132 130 -187 169 -553
388 -140 84 -419 260 -620 392 -201 132 -1056 683 -1900 1223 -1641 1051
-2315 1483 -3150 2020 -289 186 -631 405 -760 488 -129 83 -388 250 -575 372
-353 230 -571 370 -1006 643 -336 211 -672 425 -944 602 -278 181 -937 605
-1073 690 -56 36 -205 132 -330 214 -391 256 -893 578 -1577 1011 -363 230
-831 528 -1040 663 -209 135 -1044 671 -1855 1191 -1557 1000 -1621 1042
-1740 1131 -120 90 -205 145 -545 350 -395 238 -508 314 -609 410 -59 56 -101
86 -170 120 -102 50 -107 61 -56 115 15 17 31 41 35 54 7 22 5 23 -16 17 -47
-13 -124 -18 -149 -8 -20 8 -32 6 -57 -10 l-33 -20 0 32 c0 33 -15 70 -34 82
-6 4 -47 8 -92 8 -66 0 -89 5 -132 26 -58 29 -91 64 -99 107 -7 34 -19 41
-131 71 -112 30 -132 41 -132 70 0 32 -22 49 -125 97 -116 54 -170 91 -340
234 -179 149 -276 213 -595 390 -254 141 -476 274 -875 524 -110 68 -335 209
-500 311 -561 349 -940 597 -2050 1345 -669 451 -2626 1723 -3215 2090 -512
319 -940 637 -1209 900 -168 164 -204 209 -463 580 -278 399 -358 533 -358
606 0 31 -8 44 -58 91 -33 32 -71 58 -89 62 -23 5 -30 12 -26 22 3 8 8 12 11
10 8 -9 32 15 32 32 0 8 -11 30 -25 48 -14 18 -28 47 -32 64 -4 22 -14 35 -32
41 -80 31 -104 86 -200 459 -121 475 -172 721 -220 1070 -58 415 -100 1042
-133 1950 -17 484 -16 2283 2 3315 15 845 18 1993 12 4875 -4 2164 1 3050 18
3140 12 60 15 234 17 865 3 1154 16 1732 42 1920 91 659 266 1271 537 1870 59
131 280 573 293 588 4 4 23 -14 42 -39 l34 -46 3 28 c18 200 34 226 260 437
103 95 390 364 637 596 336 315 451 417 453 403 2 -10 -9 -86 -23 -169 -14
-83 -25 -168 -25 -189 l1 -39 25 48 c13 26 48 116 78 200 90 257 113 305 176
369 72 71 109 83 240 74 l95 -7 -32 33 c-18 18 -36 45 -42 60 -9 25 -8 29 20
43 16 9 51 19 78 22 41 5 49 10 67 41 27 51 72 74 156 80 66 5 69 6 64 28 -11
42 11 69 122 152 91 68 120 84 167 94 49 10 57 14 61 38 5 21 34 43 168 122
89 53 382 239 651 414 433 283 499 329 575 404 68 68 104 95 179 134 305 157
615 330 816 456 319 199 946 615 1620 1076 682 467 1765 1191 2440 1631 738
482 2027 1337 2948 1955 819 551 6485 4266 6784 4449 176 108 6231 4103 6773
4469 626 423 842 562 1685 1082 671 415 880 558 1295 886 321 255 484 435 603
670 114 226 166 414 204 745 16 138 18 236 13 1052 -8 1359 -5 2110 9 2745 20
868 25 2521 9 2940 -7 190 -13 449 -13 575 0 256 -20 751 -36 920 -29 314
-104 630 -162 682 -52 48 -85 57 -227 60 -88 2 -156 -2 -196 -11z"/>
<path d="M45257 72884 c-4 -4 -427 -11 -940 -15 -999 -8 -1029 -9 -1332 -64
-468 -85 -828 -237 -1023 -433 -157 -156 -310 -456 -405 -792 -115 -408 -162
-787 -169 -1385 -4 -259 18 -1028 38 -1385 12 -225 14 -641 12 -2745 -2 -1739
2 -2865 12 -3770 21 -1823 21 -6988 0 -8065 -13 -673 -15 -2774 -14 -15895 2
-17540 2 -19389 0 -23960 -1 -2674 2 -3433 12 -3555 47 -572 146 -944 319
-1201 74 -108 201 -248 295 -324 236 -188 653 -320 1203 -380 301 -32 404 -35
1770 -46 2012 -17 2882 2 3840 82 2100 174 3641 661 4965 1567 475 325 722
523 1210 968 234 212 435 393 447 401 13 8 55 54 95 101 39 48 149 166 243
262 94 96 209 222 255 280 46 58 173 211 281 340 337 402 545 683 1166 1570
187 267 392 557 457 645 104 141 2057 3063 2437 3646 126 192 1226 1909 1739
2714 l166 260 639 0 c352 0 1748 -4 3102 -9 l2461 -9 46 -62 c25 -35 93 -116
152 -181 58 -66 183 -216 278 -334 262 -325 497 -567 830 -853 369 -317 540
-442 818 -603 829 -478 1866 -686 2783 -559 580 81 1349 348 1827 636 240 144
611 412 780 563 198 176 511 512 654 701 213 281 513 818 650 1160 184 462
294 941 335 1459 17 218 6 763 -20 977 -60 491 -144 844 -329 1374 -32 94 -67
200 -77 237 -10 38 -21 68 -25 68 -4 0 -12 -10 -18 -22 -10 -22 -11 -21 -11
10 -1 27 -5 32 -26 32 -27 0 -13 -21 -275 391 -122 191 -290 423 -412 566
-158 188 -489 512 -678 666 -607 492 -1296 813 -2000 931 -270 45 -355 51
-745 50 -456 -1 -725 -20 -1089 -80 -864 -141 -1582 -493 -2170 -1065 -376
-365 -634 -669 -1091 -1283 -78 -105 -160 -208 -183 -228 -76 -68 -63 -68
-872 -47 -523 14 -747 15 -1510 10 -354 -3 -536 0 -640 9 -105 10 -383 14
-1005 14 -774 1 -874 3 -1000 19 -120 16 -209 19 -638 18 -274 0 -502 -3 -506
-5 -4 -3 -147 -6 -317 -7 -370 -2 -358 -5 -476 117 -142 147 -409 468 -540
650 -148 206 -192 298 -220 457 -11 63 -15 70 -44 82 -48 20 -80 76 -126 218
-45 140 -82 203 -125 212 -62 14 -75 28 -202 222 -215 330 -273 410 -441 613
-180 216 -283 352 -323 421 -22 37 -27 58 -27 112 0 37 -2 67 -4 67 -3 0 -16
-4 -30 -9 -21 -8 -27 -6 -41 15 -8 13 -43 54 -76 91 -88 97 -100 126 -108 256
l-6 109 -39 -31 c-46 -37 -56 -38 -64 -9 -9 37 -111 239 -164 325 -67 109
-111 159 -161 181 -60 26 -98 68 -158 175 -29 50 -316 490 -637 977 -322 487
-646 980 -720 1095 -212 327 -528 768 -681 949 -91 108 -350 364 -446 441
-201 161 -452 280 -695 329 -223 45 -570 69 -890 63 -586 -12 -1213 -27 -1555
-38 -209 -6 -609 -12 -890 -14 -328 -2 -539 -7 -590 -14 -287 -43 -471 -143
-545 -295 -71 -146 -88 -307 -110 -1041 -5 -159 -12 -337 -16 -395 -11 -186
14 -1629 31 -1775 29 -244 81 -410 166 -522 33 -44 56 -61 130 -98 109 -55
157 -68 364 -97 179 -24 405 -27 1205 -13 271 4 498 3 655 -4 264 -13 531 -43
573 -65 44 -23 76 -65 141 -184 110 -200 379 -642 655 -1075 275 -432 501
-774 1753 -2653 648 -973 1207 -1816 1241 -1874 257 -430 291 -703 138 -1099
-98 -254 -316 -608 -1057 -1721 -340 -510 -1139 -1664 -1380 -1995 -126 -172
-310 -438 -619 -895 -254 -375 -494 -719 -600 -860 -31 -41 -106 -147 -166
-235 -253 -368 -812 -1157 -882 -1245 -205 -257 -521 -586 -782 -815 -166
-144 -440 -365 -619 -498 -559 -415 -1220 -732 -1981 -952 -696 -200 -1341
-270 -2680 -290 -565 -9 -834 9 -985 66 -70 26 -89 46 -108 117 -35 127 -45
270 -71 937 -23 581 -27 801 -27 1420 1 464 -2 589 -15 675 -25 173 -29 614
-9 1059 19 407 16 813 -6 921 -28 133 -17 13419 12 14345 5 154 13 1137 18
2185 7 1351 13 1959 23 2090 7 102 10 268 8 370 -3 102 -4 1301 -2 2665 1
1364 4 7556 6 13760 2 6204 8 11784 13 12400 9 1253 1 1129 84 1285 l41 77
177 8 c1265 52 1821 35 2482 -75 804 -134 1273 -262 1804 -492 295 -128 669
-328 880 -472 121 -83 1190 -989 1338 -1135 236 -232 822 -966 1218 -1526 189
-267 285 -409 1289 -1900 1121 -1665 1106 -1644 1529 -2234 698 -974 1043
-1559 1148 -1948 46 -171 35 -330 -34 -487 -64 -146 -200 -359 -1346 -2119
-1092 -1677 -1214 -1860 -1246 -1874 -20 -9 -43 -19 -51 -23 -21 -10 -55 -72
-86 -160 -14 -41 -37 -97 -51 -123 -24 -48 -75 -90 -98 -81 -16 7 -73 -59 -94
-110 -10 -23 -28 -70 -40 -106 -26 -82 -72 -140 -109 -140 -38 0 -122 -91
-122 -134 0 -105 -171 -444 -382 -759 -79 -117 -412 -518 -447 -537 -25 -14
-161 -16 -1180 -17 -633 -1 -1151 2 -1151 6 0 13 39 60 118 144 40 43 71 81
69 84 -3 3 -31 -6 -61 -20 -52 -24 -97 -50 -381 -220 -153 -92 -213 -142 -296
-249 -123 -159 -120 -152 -142 -311 -25 -176 -27 -533 -8 -997 17 -397 17
-450 2 -755 -6 -137 -13 -464 -14 -725 -2 -526 2 -581 63 -763 38 -111 71
-168 136 -233 84 -86 198 -134 372 -159 267 -37 435 -46 666 -35 122 6 361 10
531 8 201 -1 363 2 460 11 119 11 178 12 290 2 77 -6 403 -13 725 -16 322 -3
704 -8 850 -11 558 -14 844 48 1137 245 188 127 329 272 558 576 134 179 2271
3345 2675 3964 102 157 236 356 296 441 332 467 975 1424 1033 1538 l22 43 47
-7 48 -6 11 65 c14 85 53 163 163 330 108 165 156 219 315 347 174 141 219
194 310 368 64 123 110 147 345 178 204 27 1025 35 3911 40 2532 4 2657 4
2677 -13 11 -10 123 -155 249 -323 183 -244 249 -340 328 -480 185 -328 275
-449 496 -667 331 -326 832 -615 1604 -926 379 -153 741 -244 1163 -294 207
-24 725 -24 942 0 1386 155 2636 849 3427 1902 423 564 768 1348 912 2075 55
273 63 367 68 755 9 640 -29 1022 -152 1520 -106 433 -220 719 -452 1135 -193
348 -288 489 -499 745 -283 344 -600 627 -999 892 -632 420 -1377 695 -2135
790 -206 25 -800 26 -1010 0 -863 -105 -1622 -384 -2325 -852 -465 -311 -889
-706 -1154 -1075 -96 -134 -284 -511 -315 -629 l-22 -86 -39 3 c-22 2 -125 14
-230 27 -492 62 -919 67 -2160 24 -176 -6 -727 -12 -1225 -13 -702 -1 -924 -4
-988 -15 -64 -10 -193 -12 -580 -8 -552 5 -620 12 -807 77 -153 54 -200 84
-326 210 -186 185 -378 456 -744 1050 -529 857 -1788 2762 -2235 3380 -303
419 -406 572 -658 975 -99 160 -229 361 -289 448 -59 87 -254 373 -432 635
-435 640 -585 854 -839 1197 -407 550 -649 856 -849 1072 -51 55 -110 121
-131 146 -20 24 -132 145 -248 268 -116 123 -238 254 -270 291 -58 66 -539
515 -784 731 -826 729 -1927 1380 -3045 1800 -649 243 -1154 379 -1930 517
-564 100 -947 143 -1455 162 -317 12 -3122 22 -3133 12z m27764 -13364 c237
-24 496 -95 727 -198 140 -62 226 -113 352 -208 161 -121 205 -168 375 -395
174 -232 236 -341 294 -519 64 -193 75 -272 76 -520 0 -246 -6 -297 -60 -496
-103 -375 -337 -734 -638 -978 -365 -294 -815 -475 -1228 -493 -352 -16 -777
107 -1089 315 -389 260 -667 666 -757 1107 -15 73 -18 138 -18 350 0 450 50
699 199 1000 149 300 394 591 628 745 362 238 728 331 1139 290z m121 -33645
c560 -74 1024 -361 1335 -826 157 -233 258 -478 315 -762 20 -97 23 -143 23
-342 0 -201 -3 -244 -23 -343 -47 -230 -148 -478 -267 -652 -107 -157 -368
-465 -447 -527 -68 -55 -522 -206 -775 -258 -188 -39 -330 -48 -553 -36 -240
13 -332 33 -639 137 -225 75 -318 115 -378 162 -18 13 -72 70 -120 126 -48 55
-172 194 -275 308 -103 114 -193 219 -201 235 -15 30 -71 358 -87 513 -60 580
123 1218 470 1640 278 339 685 566 1120 625 131 18 367 18 502 0z"/>
<path d="M32565 55116 c-253 -72 -653 -296 -1298 -728 -386 -259 -729 -506
-1342 -967 -563 -424 -801 -597 -1095 -796 -292 -198 -2354 -1621 -2515 -1735
-82 -58 -305 -210 -495 -337 -190 -127 -428 -290 -530 -363 -102 -74 -342
-238 -535 -365 -390 -259 -479 -324 -758 -552 -246 -203 -401 -321 -607 -465
-91 -63 -300 -209 -465 -325 -390 -273 -1392 -969 -1660 -1154 -115 -79 -353
-246 -530 -371 -933 -661 -1154 -815 -1640 -1148 -291 -200 -811 -562 -1155
-805 -900 -635 -1161 -814 -1285 -880 -438 -233 -577 -385 -700 -765 -20 -63
-63 -171 -95 -240 -74 -160 -154 -415 -147 -473 2 -23 -4 -256 -15 -517 -31
-757 -16 -2212 26 -2675 9 -93 16 -192 16 -220 l-1 -50 -35 55 c-20 30 -55 89
-80 131 -24 42 -53 84 -64 94 -20 18 -20 18 -1 -36 101 -288 292 -783 332
-859 163 -312 487 -650 1080 -1130 229 -186 1007 -758 1398 -1030 196 -135
527 -366 736 -512 578 -403 981 -676 1405 -950 134 -87 876 -610 3490 -2462
793 -562 827 -585 1480 -1030 705 -479 868 -593 1335 -926 417 -297 505 -357
761 -516 334 -207 492 -317 1089 -755 513 -377 602 -438 1170 -796 105 -66
285 -178 400 -249 256 -157 435 -277 890 -594 193 -135 377 -263 409 -285 33
-22 140 -105 240 -185 451 -363 642 -493 814 -554 222 -79 357 21 416 307 37
178 38 282 26 1984 -6 909 -9 1665 -6 1680 11 55 51 1148 62 1693 10 512 -15
948 -71 1225 -32 161 -66 262 -126 372 -37 70 -49 102 -49 135 0 24 -5 104
-12 179 l-12 137 -150 68 c-147 67 -688 370 -931 522 -168 105 -1570 1054
-1914 1295 -389 273 -682 482 -1561 1112 -959 687 -1576 1124 -2645 1872 -71
50 -275 185 -452 301 -607 398 -735 485 -1043 712 -288 212 -426 288 -558 306
l-52 7 0 44 c0 95 -36 132 -119 120 l-38 -5 9 41 c18 80 70 159 173 263 119
120 213 191 520 391 1502 978 1770 1161 2185 1493 116 93 394 281 755 510 108
69 390 264 628 434 238 170 619 434 848 586 229 153 492 332 585 397 93 66
356 249 584 408 228 159 458 321 511 361 53 40 125 91 159 114 66 42 171 80
221 80 35 0 36 6 7 38 l-23 24 25 17 c13 9 87 63 165 121 77 58 201 141 275
185 103 61 155 99 217 161 89 88 140 119 365 218 176 78 224 107 458 284 467
353 683 547 798 715 103 150 172 326 206 527 36 211 39 335 25 1115 -17 1001
-18 1959 -2 2090 16 132 17 232 9 790 -6 325 -4 502 3 575 28 259 22 1410 -10
1899 -11 176 -44 448 -61 501 -6 19 -20 45 -31 58 -50 54 -284 89 -392 58z"/>
<path d="M77305 45609 c-399 -33 -920 -141 -1320 -274 -882 -292 -1616 -751
-2004 -1255 -114 -148 -181 -267 -252 -451 -34 -88 -44 -99 -122 -134 -54 -25
-59 -30 -114 -128 -75 -134 -102 -160 -189 -186 -94 -28 -362 -66 -639 -91
-126 -11 -275 -25 -330 -31 -55 -6 -251 -15 -435 -20 -838 -22 -1085 -30
-1220 -38 -80 -5 -525 -15 -990 -22 -668 -10 -1238 -10 -2725 0 -1768 11
-2249 15 -4370 41 -1677 20 -2668 30 -3775 40 -1437 13 -5548 13 -5915 0 -154
-5 -458 -14 -675 -20 -217 -6 -458 -17 -535 -25 -77 -7 -175 -17 -217 -20
l-77 -7 -3 42 -3 42 -70 -53 c-38 -29 -93 -74 -121 -100 -41 -38 -62 -49 -108
-59 -45 -9 -56 -15 -52 -28 16 -59 17 -84 3 -100 -21 -23 -61 -164 -81 -282
-51 -309 -69 -519 -77 -925 -4 -220 -12 -431 -18 -470 -26 -174 2 -1030 44
-1375 8 -63 19 -176 25 -250 38 -453 114 -671 261 -746 143 -72 652 -133 1286
-154 153 -5 440 -15 638 -22 347 -12 3087 -15 5155 -5 792 3 1964 24 1990 34
8 4 314 10 680 14 664 7 1400 19 2450 40 980 19 1860 31 2465 33 366 1 638 6
715 14 84 8 529 14 1360 18 1623 9 1712 9 2700 -4 937 -13 1218 -21 1710 -51
354 -22 513 -38 688 -72 155 -29 199 -53 276 -152 88 -114 198 -284 301 -467
253 -448 409 -650 674 -873 361 -305 895 -621 1435 -851 172 -73 529 -189 736
-240 826 -204 1788 -153 2630 140 458 159 936 420 1317 721 321 253 433 354
596 538 285 323 422 508 622 840 343 568 562 1229 642 1937 22 193 25 768 5
958 -68 649 -210 1183 -478 1797 -90 206 -92 215 -45 262 25 25 15 34 -62 54
-112 29 -149 73 -277 327 -130 255 -215 374 -437 610 -341 362 -677 631 -1067
855 -522 299 -1198 524 -1816 605 -180 24 -607 34 -785 19z m492 -3024 c424
-23 859 -251 1155 -604 226 -270 383 -593 450 -922 19 -95 23 -145 23 -299 -1
-476 -120 -840 -391 -1200 -123 -162 -349 -370 -529 -486 -225 -144 -480 -244
-700 -274 -130 -18 -582 -9 -693 14 -179 36 -462 157 -626 268 -94 62 -249
200 -359 319 -603 647 -665 1742 -139 2457 246 336 693 611 1151 708 144 30
341 36 658 19z"/>
</g>
</svg>
